<?xml version="1.0" encoding="UTF-8"?>
<!DOCTYPE svg
PUBLIC "-//W3C//DTD SVG 1.1//EN"
       "http://www.w3.org/Graphics/SVG/1.1/DTD/svg11.dtd">
<svg viewBox="20 -15 1282 985" width="1262px" height="1000px" xmlns="http://www.w3.org/2000/svg" version="1.1">
   <line x1="301" y1="149" x2="311" y2="149" style="stroke:#0b0;stroke-width:1;"/>
   <line x1="547" y1="70" x2="557" y2="70" style="stroke:#0b0;stroke-width:1;"/>
   <line x1="311" y1="149" x2="547" y2="70" style="stroke:#0b0;stroke-width:1;"/>
   <line x1="308.5" y1="149" x2="304.96446609407" y2="152.53553390593" style="stroke:#0b0;stroke-width:2;"/>
   <line x1="308.5" y1="149" x2="304.96446609407" y2="145.46446609407" style="stroke:#0b0;stroke-width:2;"/>
   <line x1="552" y1="70" x2="548.46446609407" y2="73.535533905933" style="stroke:#0b0;stroke-width:2;"/>
   <line x1="552" y1="70" x2="548.46446609407" y2="66.464466094067" style="stroke:#0b0;stroke-width:2;"/>
   <line x1="447" y1="266" x2="457" y2="266" style="stroke:#b0b;stroke-width:1;"/>
   <line x1="547" y1="30" x2="557" y2="30" style="stroke:#b0b;stroke-width:1;"/>
   <line x1="457" y1="266" x2="547" y2="30" style="stroke:#b0b;stroke-width:1;"/>
   <line x1="454.5" y1="266" x2="450.96446609407" y2="269.53553390593" style="stroke:#b0b;stroke-width:2;"/>
   <line x1="454.5" y1="266" x2="450.96446609407" y2="262.46446609407" style="stroke:#b0b;stroke-width:2;"/>
   <line x1="552" y1="30" x2="548.46446609407" y2="33.535533905933" style="stroke:#b0b;stroke-width:2;"/>
   <line x1="552" y1="30" x2="548.46446609407" y2="26.464466094067" style="stroke:#b0b;stroke-width:2;"/>
   <line x1="991" y1="439" x2="981" y2="439" style="stroke:#333;stroke-width:1;"/>
   <line x1="711" y1="30" x2="701" y2="30" style="stroke:#333;stroke-width:1;"/>
   <line x1="981" y1="439" x2="711" y2="30" style="stroke:#333;stroke-width:1;"/>
   <line x1="983.5" y1="439" x2="987.03553390593" y2="442.53553390593" style="stroke:#333;stroke-width:2;"/>
   <line x1="983.5" y1="439" x2="987.03553390593" y2="435.46446609407" style="stroke:#333;stroke-width:2;"/>
   <line x1="706" y1="30" x2="709.53553390593" y2="33.535533905933" style="stroke:#333;stroke-width:2;"/>
   <line x1="706" y1="30" x2="709.53553390593" y2="26.464466094067" style="stroke:#333;stroke-width:2;"/>
   <line x1="991" y1="579" x2="981" y2="579" style="stroke:#bbb;stroke-width:1;"/>
   <line x1="894" y1="562" x2="884" y2="562" style="stroke:#bbb;stroke-width:1;"/>
   <line x1="981" y1="579" x2="894" y2="562" style="stroke:#bbb;stroke-width:1;"/>
   <line x1="983.5" y1="579" x2="987.03553390593" y2="582.53553390593" style="stroke:#bbb;stroke-width:2;"/>
   <line x1="983.5" y1="579" x2="987.03553390593" y2="575.46446609407" style="stroke:#bbb;stroke-width:2;"/>
   <line x1="889" y1="562" x2="892.53553390593" y2="565.53553390593" style="stroke:#bbb;stroke-width:2;"/>
   <line x1="889" y1="562" x2="892.53553390593" y2="558.46446609407" style="stroke:#bbb;stroke-width:2;"/>
   <line x1="1093" y1="419" x2="1103" y2="419" style="stroke:#333;stroke-width:1;"/>
   <line x1="1152" y1="37" x2="1162" y2="37" style="stroke:#333;stroke-width:1;"/>
   <line x1="1103" y1="419" x2="1152" y2="37" style="stroke:#333;stroke-width:1;"/>
   <line x1="1100.5" y1="419" x2="1096.9644660941" y2="422.53553390593" style="stroke:#333;stroke-width:2;"/>
   <line x1="1100.5" y1="419" x2="1096.9644660941" y2="415.46446609407" style="stroke:#333;stroke-width:2;"/>
   <line x1="1157" y1="37" x2="1153.4644660941" y2="40.535533905933" style="stroke:#333;stroke-width:2;"/>
   <line x1="1157" y1="37" x2="1153.4644660941" y2="33.464466094067" style="stroke:#333;stroke-width:2;"/>
   <line x1="343" y1="54" x2="353" y2="54" style="stroke:#bbb;stroke-width:1;"/>
   <line x1="547" y1="30" x2="557" y2="30" style="stroke:#bbb;stroke-width:1;"/>
   <line x1="353" y1="54" x2="547" y2="30" style="stroke:#bbb;stroke-width:1;"/>
   <line x1="350.5" y1="54" x2="346.96446609407" y2="57.535533905933" style="stroke:#bbb;stroke-width:2;"/>
   <line x1="350.5" y1="54" x2="346.96446609407" y2="50.464466094067" style="stroke:#bbb;stroke-width:2;"/>
   <line x1="552" y1="30" x2="548.46446609407" y2="33.535533905933" style="stroke:#bbb;stroke-width:2;"/>
   <line x1="552" y1="30" x2="548.46446609407" y2="26.464466094067" style="stroke:#bbb;stroke-width:2;"/>
   <line x1="212" y1="74" x2="202" y2="74" style="stroke:#0b0;stroke-width:1;"/>
   <line x1="121" y1="36" x2="111" y2="36" style="stroke:#0b0;stroke-width:1;"/>
   <line x1="202" y1="74" x2="121" y2="36" style="stroke:#0b0;stroke-width:1;"/>
   <line x1="204.5" y1="74" x2="208.03553390593" y2="77.535533905933" style="stroke:#0b0;stroke-width:2;"/>
   <line x1="204.5" y1="74" x2="208.03553390593" y2="70.464466094067" style="stroke:#0b0;stroke-width:2;"/>
   <line x1="116" y1="36" x2="119.53553390593" y2="39.535533905933" style="stroke:#0b0;stroke-width:2;"/>
   <line x1="116" y1="36" x2="119.53553390593" y2="32.464466094067" style="stroke:#0b0;stroke-width:2;"/>
   <line x1="596" y1="440" x2="606" y2="440" style="stroke:#0bf;stroke-width:1;"/>
   <line x1="547" y1="30" x2="557" y2="30" style="stroke:#0bf;stroke-width:1;"/>
   <line x1="606" y1="440" x2="547" y2="30" style="stroke:#0bf;stroke-width:1;"/>
   <line x1="603.5" y1="440" x2="599.96446609407" y2="443.53553390593" style="stroke:#0bf;stroke-width:2;"/>
   <line x1="603.5" y1="440" x2="599.96446609407" y2="436.46446609407" style="stroke:#0bf;stroke-width:2;"/>
   <line x1="552" y1="30" x2="548.46446609407" y2="33.535533905933" style="stroke:#0bf;stroke-width:2;"/>
   <line x1="552" y1="30" x2="548.46446609407" y2="26.464466094067" style="stroke:#0bf;stroke-width:2;"/>
   <line x1="1162" y1="57" x2="1152" y2="57" style="stroke:#bbb;stroke-width:1;"/>
   <line x1="1068" y1="69" x2="1058" y2="69" style="stroke:#bbb;stroke-width:1;"/>
   <line x1="1152" y1="57" x2="1068" y2="69" style="stroke:#bbb;stroke-width:1;"/>
   <line x1="1154.5" y1="57" x2="1158.0355339059" y2="60.535533905933" style="stroke:#bbb;stroke-width:2;"/>
   <line x1="1154.5" y1="57" x2="1158.0355339059" y2="53.464466094067" style="stroke:#bbb;stroke-width:2;"/>
   <line x1="1063" y1="69" x2="1066.5355339059" y2="72.535533905933" style="stroke:#bbb;stroke-width:2;"/>
   <line x1="1063" y1="69" x2="1066.5355339059" y2="65.464466094067" style="stroke:#bbb;stroke-width:2;"/>
   <line x1="1058" y1="169" x2="1068" y2="169" style="stroke:#333;stroke-width:1;"/>
   <line x1="1070" y1="284" x2="1060" y2="284" style="stroke:#333;stroke-width:1;"/>
   <line x1="1068" y1="169" x2="1070" y2="284" style="stroke:#333;stroke-width:1;"/>
   <line x1="1065.5" y1="169" x2="1061.9644660941" y2="172.53553390593" style="stroke:#333;stroke-width:2;"/>
   <line x1="1065.5" y1="169" x2="1061.9644660941" y2="165.46446609407" style="stroke:#333;stroke-width:2;"/>
   <line x1="1065" y1="284" x2="1068.5355339059" y2="287.53553390593" style="stroke:#333;stroke-width:2;"/>
   <line x1="1065" y1="284" x2="1068.5355339059" y2="280.46446609407" style="stroke:#333;stroke-width:2;"/>
   <line x1="871" y1="311" x2="881" y2="311" style="stroke:#0b0;stroke-width:1;"/>
   <line x1="967" y1="69" x2="977" y2="69" style="stroke:#0b0;stroke-width:1;"/>
   <line x1="881" y1="311" x2="967" y2="69" style="stroke:#0b0;stroke-width:1;"/>
   <line x1="878.5" y1="311" x2="874.96446609407" y2="314.53553390593" style="stroke:#0b0;stroke-width:2;"/>
   <line x1="878.5" y1="311" x2="874.96446609407" y2="307.46446609407" style="stroke:#0b0;stroke-width:2;"/>
   <line x1="972" y1="69" x2="968.46446609407" y2="72.535533905933" style="stroke:#0b0;stroke-width:2;"/>
   <line x1="972" y1="69" x2="968.46446609407" y2="65.464466094067" style="stroke:#0b0;stroke-width:2;"/>
   <rect width="79" height="20" x="87" y="371" style="fill:#007;stroke:black;"/>
   <text width="79" height="20" x="92" y="385" style="fill:#fff;" font-family="Arial" font-size="16px"> bill</text>
   <rect width="79" height="20" x="87" y="391" style="fill:#aea;stroke:black;"/>
   <text width="79" height="20" x="92" y="405" style="fill:black;" font-family="Arial" font-size="16px">id</text>
   <rect width="79" height="20" x="87" y="411" style="fill:none;stroke:black;"/>
   <text width="79" height="20" x="92" y="425" style="fill:black;" font-family="Arial" font-size="16px">profile_id</text>
   <rect width="79" height="20" x="87" y="431" style="fill:none;stroke:black;"/>
   <text width="79" height="20" x="92" y="445" style="fill:black;" font-family="Arial" font-size="16px">user_id</text>
   <rect width="79" height="20" x="87" y="451" style="fill:none;stroke:black;"/>
   <text width="79" height="20" x="92" y="465" style="fill:black;" font-family="Arial" font-size="16px">order_id</text>
   <rect width="79" height="20" x="87" y="471" style="fill:none;stroke:black;"/>
   <text width="79" height="20" x="92" y="485" style="fill:black;" font-family="Arial" font-size="16px">per_cash</text>
   <rect width="79" height="20" x="87" y="491" style="fill:none;stroke:black;"/>
   <text width="79" height="20" x="92" y="505" style="fill:black;" font-family="Arial" font-size="16px">total_cash</text>
   <rect width="79" height="20" x="87" y="511" style="fill:none;stroke:black;"/>
   <text width="79" height="20" x="92" y="525" style="fill:black;" font-family="Arial" font-size="16px">created</text>
   <rect width="79" height="20" x="87" y="531" style="fill:none;stroke:black;"/>
   <text width="79" height="20" x="92" y="545" style="fill:black;" font-family="Arial" font-size="16px">updated</text>
   <rect width="76" height="20" x="35" y="6" style="fill:#007;stroke:black;"/>
   <text width="76" height="20" x="40" y="20" style="fill:#fff;" font-family="Arial" font-size="16px"> category</text>
   <rect width="76" height="20" x="35" y="26" style="fill:#aea;stroke:black;"/>
   <text width="76" height="20" x="40" y="40" style="fill:black;" font-family="Arial" font-size="16px">id</text>
   <rect width="76" height="20" x="35" y="46" style="fill:none;stroke:black;"/>
   <text width="76" height="20" x="40" y="60" style="fill:black;" font-family="Arial" font-size="16px">cat_name</text>
   <rect width="76" height="20" x="35" y="66" style="fill:none;stroke:black;"/>
   <text width="76" height="20" x="40" y="80" style="fill:black;" font-family="Arial" font-size="16px">params</text>
   <rect width="76" height="20" x="35" y="86" style="fill:none;stroke:black;"/>
   <text width="76" height="20" x="40" y="100" style="fill:black;" font-family="Arial" font-size="16px">position</text>
   <rect width="76" height="20" x="35" y="106" style="fill:none;stroke:black;"/>
   <text width="76" height="20" x="40" y="120" style="fill:black;" font-family="Arial" font-size="16px">active</text>
   <rect width="76" height="20" x="35" y="126" style="fill:none;stroke:black;"/>
   <text width="76" height="20" x="40" y="140" style="fill:black;" font-family="Arial" font-size="16px">created</text>
   <rect width="76" height="20" x="35" y="146" style="fill:none;stroke:black;"/>
   <text width="76" height="20" x="40" y="160" style="fill:black;" font-family="Arial" font-size="16px">updated</text>
   <rect width="85" height="20" x="216" y="119" style="fill:#007;stroke:black;"/>
   <text width="85" height="20" x="221" y="133" style="fill:#fff;" font-family="Arial" font-size="16px"> company</text>
   <rect width="85" height="20" x="216" y="139" style="fill:#aea;stroke:black;"/>
   <text width="85" height="20" x="221" y="153" style="fill:black;" font-family="Arial" font-size="16px">id</text>
   <rect width="85" height="20" x="216" y="159" style="fill:none;stroke:black;"/>
   <text width="85" height="20" x="221" y="173" style="fill:black;" font-family="Arial" font-size="16px">com_name</text>
   <rect width="85" height="20" x="216" y="179" style="fill:none;stroke:black;"/>
   <text width="85" height="20" x="221" y="193" style="fill:black;" font-family="Arial" font-size="16px">params</text>
   <rect width="85" height="20" x="216" y="199" style="fill:none;stroke:black;"/>
   <text width="85" height="20" x="221" y="213" style="fill:black;" font-family="Arial" font-size="16px">position</text>
   <rect width="85" height="20" x="216" y="219" style="fill:none;stroke:black;"/>
   <text width="85" height="20" x="221" y="233" style="fill:black;" font-family="Arial" font-size="16px">active</text>
   <rect width="85" height="20" x="216" y="239" style="fill:none;stroke:black;"/>
   <text width="85" height="20" x="221" y="253" style="fill:black;" font-family="Arial" font-size="16px">created</text>
   <rect width="85" height="20" x="216" y="259" style="fill:none;stroke:black;"/>
   <text width="85" height="20" x="221" y="273" style="fill:black;" font-family="Arial" font-size="16px">updated</text>
   <rect width="88" height="20" x="1179" y="324" style="fill:#007;stroke:black;"/>
   <text width="88" height="20" x="1184" y="338" style="fill:#fff;" font-family="Arial" font-size="16px"> event</text>
   <rect width="88" height="20" x="1179" y="344" style="fill:#aea;stroke:black;"/>
   <text width="88" height="20" x="1184" y="358" style="fill:black;" font-family="Arial" font-size="16px">id</text>
   <rect width="88" height="20" x="1179" y="364" style="fill:none;stroke:black;"/>
   <text width="88" height="20" x="1184" y="378" style="fill:black;" font-family="Arial" font-size="16px">title</text>
   <rect width="88" height="20" x="1179" y="384" style="fill:none;stroke:black;"/>
   <text width="88" height="20" x="1184" y="398" style="fill:black;" font-family="Arial" font-size="16px">params</text>
   <rect width="88" height="20" x="1179" y="404" style="fill:none;stroke:black;"/>
   <text width="88" height="20" x="1184" y="418" style="fill:black;" font-family="Arial" font-size="16px">description</text>
   <rect width="88" height="20" x="1179" y="424" style="fill:none;stroke:black;"/>
   <text width="88" height="20" x="1184" y="438" style="fill:black;" font-family="Arial" font-size="16px">image</text>
   <rect width="88" height="20" x="1179" y="444" style="fill:none;stroke:black;"/>
   <text width="88" height="20" x="1184" y="458" style="fill:black;" font-family="Arial" font-size="16px">address</text>
   <rect width="88" height="20" x="1179" y="464" style="fill:none;stroke:black;"/>
   <text width="88" height="20" x="1184" y="478" style="fill:black;" font-family="Arial" font-size="16px">zipcode</text>
   <rect width="88" height="20" x="1179" y="484" style="fill:none;stroke:black;"/>
   <text width="88" height="20" x="1184" y="498" style="fill:black;" font-family="Arial" font-size="16px">city</text>
   <rect width="88" height="20" x="1179" y="504" style="fill:none;stroke:black;"/>
   <text width="88" height="20" x="1184" y="518" style="fill:black;" font-family="Arial" font-size="16px">schedule</text>
   <rect width="88" height="20" x="1179" y="524" style="fill:none;stroke:black;"/>
   <text width="88" height="20" x="1184" y="538" style="fill:black;" font-family="Arial" font-size="16px">date_start</text>
   <rect width="88" height="20" x="1179" y="544" style="fill:none;stroke:black;"/>
   <text width="88" height="20" x="1184" y="558" style="fill:black;" font-family="Arial" font-size="16px">date_end</text>
   <rect width="88" height="20" x="1179" y="564" style="fill:none;stroke:black;"/>
   <text width="88" height="20" x="1184" y="578" style="fill:black;" font-family="Arial" font-size="16px">ticket</text>
   <rect width="88" height="20" x="1179" y="584" style="fill:none;stroke:black;"/>
   <text width="88" height="20" x="1184" y="598" style="fill:black;" font-family="Arial" font-size="16px">price</text>
   <rect width="88" height="20" x="1179" y="604" style="fill:none;stroke:black;"/>
   <text width="88" height="20" x="1184" y="618" style="fill:black;" font-family="Arial" font-size="16px">updated</text>
   <rect width="81" height="20" x="366" y="216" style="fill:#007;stroke:black;"/>
   <text width="81" height="20" x="371" y="230" style="fill:#fff;" font-family="Arial" font-size="16px"> image</text>
   <rect width="81" height="20" x="366" y="236" style="fill:#aea;stroke:black;"/>
   <text width="81" height="20" x="371" y="250" style="fill:black;" font-family="Arial" font-size="16px">id</text>
   <rect width="81" height="20" x="366" y="256" style="fill:none;stroke:black;"/>
   <text width="81" height="20" x="371" y="270" style="fill:black;" font-family="Arial" font-size="16px">product_id</text>
   <rect width="81" height="20" x="366" y="276" style="fill:none;stroke:black;"/>
   <text width="81" height="20" x="371" y="290" style="fill:black;" font-family="Arial" font-size="16px">url</text>
   <rect width="81" height="20" x="366" y="296" style="fill:none;stroke:black;"/>
   <text width="81" height="20" x="371" y="310" style="fill:black;" font-family="Arial" font-size="16px">active</text>
   <rect width="81" height="20" x="366" y="316" style="fill:none;stroke:black;"/>
   <text width="81" height="20" x="371" y="330" style="fill:black;" font-family="Arial" font-size="16px">created</text>
   <rect width="81" height="20" x="366" y="336" style="fill:none;stroke:black;"/>
   <text width="81" height="20" x="371" y="350" style="fill:black;" font-family="Arial" font-size="16px">updated</text>
   <rect width="102" height="20" x="991" y="369" style="fill:#007;stroke:black;"/>
   <text width="102" height="20" x="996" y="383" style="fill:#fff;" font-family="Arial" font-size="16px"> order_product</text>
   <rect width="102" height="20" x="991" y="389" style="fill:#aea;stroke:black;"/>
   <text width="102" height="20" x="996" y="403" style="fill:black;" font-family="Arial" font-size="16px">id</text>
   <rect width="102" height="20" x="991" y="409" style="fill:none;stroke:black;"/>
   <text width="102" height="20" x="996" y="423" style="fill:black;" font-family="Arial" font-size="16px">profile_id</text>
   <rect width="102" height="20" x="991" y="429" style="fill:none;stroke:black;"/>
   <text width="102" height="20" x="996" y="443" style="fill:black;" font-family="Arial" font-size="16px">product_id</text>
   <rect width="102" height="20" x="991" y="449" style="fill:none;stroke:black;"/>
   <text width="102" height="20" x="996" y="463" style="fill:black;" font-family="Arial" font-size="16px">item_count</text>
   <rect width="102" height="20" x="991" y="469" style="fill:none;stroke:black;"/>
   <text width="102" height="20" x="996" y="483" style="fill:black;" font-family="Arial" font-size="16px">to_price</text>
   <rect width="102" height="20" x="991" y="489" style="fill:none;stroke:black;"/>
   <text width="102" height="20" x="996" y="503" style="fill:black;" font-family="Arial" font-size="16px">ship_price</text>
   <rect width="102" height="20" x="991" y="509" style="fill:none;stroke:black;"/>
   <text width="102" height="20" x="996" y="523" style="fill:black;" font-family="Arial" font-size="16px">total_price</text>
   <rect width="102" height="20" x="991" y="529" style="fill:none;stroke:black;"/>
   <text width="102" height="20" x="996" y="543" style="fill:black;" font-family="Arial" font-size="16px">order_type</text>
   <rect width="102" height="20" x="991" y="549" style="fill:none;stroke:black;"/>
   <text width="102" height="20" x="996" y="563" style="fill:black;" font-family="Arial" font-size="16px">description</text>
   <rect width="102" height="20" x="991" y="569" style="fill:none;stroke:black;"/>
   <text width="102" height="20" x="996" y="583" style="fill:black;" font-family="Arial" font-size="16px">status</text>
   <rect width="102" height="20" x="991" y="589" style="fill:none;stroke:black;"/>
   <text width="102" height="20" x="996" y="603" style="fill:black;" font-family="Arial" font-size="16px">ip_address</text>
   <rect width="102" height="20" x="991" y="609" style="fill:none;stroke:black;"/>
   <text width="102" height="20" x="996" y="623" style="fill:black;" font-family="Arial" font-size="16px">created</text>
   <rect width="102" height="20" x="991" y="629" style="fill:none;stroke:black;"/>
   <text width="102" height="20" x="996" y="643" style="fill:black;" font-family="Arial" font-size="16px">updated</text>
   <rect width="96" height="20" x="788" y="532" style="fill:#007;stroke:black;"/>
   <text width="96" height="20" x="793" y="546" style="fill:#fff;" font-family="Arial" font-size="16px"> order_status</text>
   <rect width="96" height="20" x="788" y="552" style="fill:#aea;stroke:black;"/>
   <text width="96" height="20" x="793" y="566" style="fill:black;" font-family="Arial" font-size="16px">id</text>
   <rect width="96" height="20" x="788" y="572" style="fill:none;stroke:black;"/>
   <text width="96" height="20" x="793" y="586" style="fill:black;" font-family="Arial" font-size="16px">name</text>
   <rect width="96" height="20" x="788" y="592" style="fill:none;stroke:black;"/>
   <text width="96" height="20" x="793" y="606" style="fill:black;" font-family="Arial" font-size="16px">note</text>
   <rect width="96" height="20" x="788" y="612" style="fill:none;stroke:black;"/>
   <text width="96" height="20" x="793" y="626" style="fill:black;" font-family="Arial" font-size="16px">updated</text>
   <rect width="144" height="20" x="557" y="0" style="fill:#007;stroke:black;"/>
   <text width="144" height="20" x="562" y="14" style="fill:#fff;" font-family="Arial" font-size="16px"> product</text>
   <rect width="144" height="20" x="557" y="20" style="fill:#aea;stroke:black;"/>
   <text width="144" height="20" x="562" y="34" style="fill:black;" font-family="Arial" font-size="16px">id</text>
   <rect width="144" height="20" x="557" y="40" style="fill:none;stroke:black;"/>
   <text width="144" height="20" x="562" y="54" style="fill:black;" font-family="Arial" font-size="16px">category_id</text>
   <rect width="144" height="20" x="557" y="60" style="fill:none;stroke:black;"/>
   <text width="144" height="20" x="562" y="74" style="fill:black;" font-family="Arial" font-size="16px">company_id</text>
   <rect width="144" height="20" x="557" y="80" style="fill:none;stroke:black;"/>
   <text width="144" height="20" x="562" y="94" style="fill:black;" font-family="Arial" font-size="16px">title</text>
   <rect width="144" height="20" x="557" y="100" style="fill:none;stroke:black;"/>
   <text width="144" height="20" x="562" y="114" style="fill:black;" font-family="Arial" font-size="16px">params</text>
   <rect width="144" height="20" x="557" y="120" style="fill:none;stroke:black;"/>
   <text width="144" height="20" x="562" y="134" style="fill:black;" font-family="Arial" font-size="16px">price</text>
   <rect width="144" height="20" x="557" y="140" style="fill:none;stroke:black;"/>
   <text width="144" height="20" x="562" y="154" style="fill:black;" font-family="Arial" font-size="16px">count</text>
   <rect width="144" height="20" x="557" y="160" style="fill:none;stroke:black;"/>
   <text width="144" height="20" x="562" y="174" style="fill:black;" font-family="Arial" font-size="16px">active</text>
   <rect width="144" height="20" x="557" y="180" style="fill:none;stroke:black;"/>
   <text width="144" height="20" x="562" y="194" style="fill:black;" font-family="Arial" font-size="16px">detail</text>
   <rect width="144" height="20" x="557" y="200" style="fill:none;stroke:black;"/>
   <text width="144" height="20" x="562" y="214" style="fill:black;" font-family="Arial" font-size="16px">type</text>
   <rect width="144" height="20" x="557" y="220" style="fill:none;stroke:black;"/>
   <text width="144" height="20" x="562" y="234" style="fill:black;" font-family="Arial" font-size="16px">sale</text>
   <rect width="144" height="20" x="557" y="240" style="fill:none;stroke:black;"/>
   <text width="144" height="20" x="562" y="254" style="fill:black;" font-family="Arial" font-size="16px">manufactured_date</text>
   <rect width="144" height="20" x="557" y="260" style="fill:none;stroke:black;"/>
   <text width="144" height="20" x="562" y="274" style="fill:black;" font-family="Arial" font-size="16px">tags</text>
   <rect width="144" height="20" x="557" y="280" style="fill:none;stroke:black;"/>
   <text width="144" height="20" x="562" y="294" style="fill:black;" font-family="Arial" font-size="16px">view</text>
   <rect width="144" height="20" x="557" y="300" style="fill:none;stroke:black;"/>
   <text width="144" height="20" x="562" y="314" style="fill:black;" font-family="Arial" font-size="16px">created</text>
   <rect width="144" height="20" x="557" y="320" style="fill:none;stroke:black;"/>
   <text width="144" height="20" x="562" y="334" style="fill:black;" font-family="Arial" font-size="16px">updated</text>
   <rect width="131" height="20" x="212" y="4" style="fill:#007;stroke:black;"/>
   <text width="131" height="20" x="217" y="18" style="fill:#fff;" font-family="Arial" font-size="16px"> product_collection</text>
   <rect width="131" height="20" x="212" y="24" style="fill:#aea;stroke:black;"/>
   <text width="131" height="20" x="217" y="38" style="fill:black;" font-family="Arial" font-size="16px">id</text>
   <rect width="131" height="20" x="212" y="44" style="fill:none;stroke:black;"/>
   <text width="131" height="20" x="217" y="58" style="fill:black;" font-family="Arial" font-size="16px">product_id</text>
   <rect width="131" height="20" x="212" y="64" style="fill:none;stroke:black;"/>
   <text width="131" height="20" x="217" y="78" style="fill:black;" font-family="Arial" font-size="16px">category_id</text>
   <rect width="131" height="20" x="212" y="84" style="fill:none;stroke:black;"/>
   <text width="131" height="20" x="217" y="98" style="fill:black;" font-family="Arial" font-size="16px">updated</text>
   <rect width="133" height="20" x="463" y="390" style="fill:#007;stroke:black;"/>
   <text width="133" height="20" x="468" y="404" style="fill:#fff;" font-family="Arial" font-size="16px"> product_detail</text>
   <rect width="133" height="20" x="463" y="410" style="fill:#aea;stroke:black;"/>
   <text width="133" height="20" x="468" y="424" style="fill:black;" font-family="Arial" font-size="16px">id</text>
   <rect width="133" height="20" x="463" y="430" style="fill:none;stroke:black;"/>
   <text width="133" height="20" x="468" y="444" style="fill:black;" font-family="Arial" font-size="16px">product_id</text>
   <rect width="133" height="20" x="463" y="450" style="fill:none;stroke:black;"/>
   <text width="133" height="20" x="468" y="464" style="fill:black;" font-family="Arial" font-size="16px">length</text>
   <rect width="133" height="20" x="463" y="470" style="fill:none;stroke:black;"/>
   <text width="133" height="20" x="468" y="484" style="fill:black;" font-family="Arial" font-size="16px">width</text>
   <rect width="133" height="20" x="463" y="490" style="fill:none;stroke:black;"/>
   <text width="133" height="20" x="468" y="504" style="fill:black;" font-family="Arial" font-size="16px">height</text>
   <rect width="133" height="20" x="463" y="510" style="fill:none;stroke:black;"/>
   <text width="133" height="20" x="468" y="524" style="fill:black;" font-family="Arial" font-size="16px">weight</text>
   <rect width="133" height="20" x="463" y="530" style="fill:none;stroke:black;"/>
   <text width="133" height="20" x="468" y="544" style="fill:black;" font-family="Arial" font-size="16px">screen_type</text>
   <rect width="133" height="20" x="463" y="550" style="fill:none;stroke:black;"/>
   <text width="133" height="20" x="468" y="564" style="fill:black;" font-family="Arial" font-size="16px">screen_size</text>
   <rect width="133" height="20" x="463" y="570" style="fill:none;stroke:black;"/>
   <text width="133" height="20" x="468" y="584" style="fill:black;" font-family="Arial" font-size="16px">screen_resolution</text>
   <rect width="133" height="20" x="463" y="590" style="fill:none;stroke:black;"/>
   <text width="133" height="20" x="468" y="604" style="fill:black;" font-family="Arial" font-size="16px">screen_des</text>
   <rect width="133" height="20" x="463" y="610" style="fill:none;stroke:black;"/>
   <text width="133" height="20" x="468" y="624" style="fill:black;" font-family="Arial" font-size="16px">memory_int</text>
   <rect width="133" height="20" x="463" y="630" style="fill:none;stroke:black;"/>
   <text width="133" height="20" x="468" y="644" style="fill:black;" font-family="Arial" font-size="16px">memory_ext</text>
   <rect width="133" height="20" x="463" y="650" style="fill:none;stroke:black;"/>
   <text width="133" height="20" x="468" y="664" style="fill:black;" font-family="Arial" font-size="16px">memory_sup</text>
   <rect width="133" height="20" x="463" y="670" style="fill:none;stroke:black;"/>
   <text width="133" height="20" x="468" y="684" style="fill:black;" font-family="Arial" font-size="16px">bandwidth</text>
   <rect width="133" height="20" x="463" y="690" style="fill:none;stroke:black;"/>
   <text width="133" height="20" x="468" y="704" style="fill:black;" font-family="Arial" font-size="16px">gps_type</text>
   <rect width="133" height="20" x="463" y="710" style="fill:none;stroke:black;"/>
   <text width="133" height="20" x="468" y="724" style="fill:black;" font-family="Arial" font-size="16px">bluetooth</text>
   <rect width="133" height="20" x="463" y="730" style="fill:none;stroke:black;"/>
   <text width="133" height="20" x="468" y="744" style="fill:black;" font-family="Arial" font-size="16px">wifi</text>
   <rect width="133" height="20" x="463" y="750" style="fill:none;stroke:black;"/>
   <text width="133" height="20" x="468" y="764" style="fill:black;" font-family="Arial" font-size="16px">infrared</text>
   <rect width="133" height="20" x="463" y="770" style="fill:none;stroke:black;"/>
   <text width="133" height="20" x="468" y="784" style="fill:black;" font-family="Arial" font-size="16px">usb</text>
   <rect width="133" height="20" x="463" y="790" style="fill:none;stroke:black;"/>
   <text width="133" height="20" x="468" y="804" style="fill:black;" font-family="Arial" font-size="16px">main_camera</text>
   <rect width="133" height="20" x="463" y="810" style="fill:none;stroke:black;"/>
   <text width="133" height="20" x="468" y="824" style="fill:black;" font-family="Arial" font-size="16px">front_camera</text>
   <rect width="133" height="20" x="463" y="830" style="fill:none;stroke:black;"/>
   <text width="133" height="20" x="468" y="844" style="fill:black;" font-family="Arial" font-size="16px">sim_support</text>
   <rect width="133" height="20" x="463" y="850" style="fill:none;stroke:black;"/>
   <text width="133" height="20" x="468" y="864" style="fill:black;" font-family="Arial" font-size="16px">os</text>
   <rect width="133" height="20" x="463" y="870" style="fill:none;stroke:black;"/>
   <text width="133" height="20" x="468" y="884" style="fill:black;" font-family="Arial" font-size="16px">cpu</text>
   <rect width="133" height="20" x="463" y="890" style="fill:none;stroke:black;"/>
   <text width="133" height="20" x="468" y="904" style="fill:black;" font-family="Arial" font-size="16px">ram</text>
   <rect width="133" height="20" x="463" y="910" style="fill:none;stroke:black;"/>
   <text width="133" height="20" x="468" y="924" style="fill:black;" font-family="Arial" font-size="16px">battery</text>
   <rect width="133" height="20" x="463" y="930" style="fill:none;stroke:black;"/>
   <text width="133" height="20" x="468" y="944" style="fill:black;" font-family="Arial" font-size="16px">accessory</text>
   <rect width="133" height="20" x="463" y="950" style="fill:none;stroke:black;"/>
   <text width="133" height="20" x="468" y="964" style="fill:black;" font-family="Arial" font-size="16px">updated</text>
   <rect width="75" height="20" x="1162" y="7" style="fill:#007;stroke:black;"/>
   <text width="75" height="20" x="1167" y="21" style="fill:#fff;" font-family="Arial" font-size="16px"> profile</text>
   <rect width="75" height="20" x="1162" y="27" style="fill:#aea;stroke:black;"/>
   <text width="75" height="20" x="1167" y="41" style="fill:black;" font-family="Arial" font-size="16px">id</text>
   <rect width="75" height="20" x="1162" y="47" style="fill:none;stroke:black;"/>
   <text width="75" height="20" x="1167" y="61" style="fill:black;" font-family="Arial" font-size="16px">user_id</text>
   <rect width="75" height="20" x="1162" y="67" style="fill:none;stroke:black;"/>
   <text width="75" height="20" x="1167" y="81" style="fill:black;" font-family="Arial" font-size="16px">full_name</text>
   <rect width="75" height="20" x="1162" y="87" style="fill:none;stroke:black;"/>
   <text width="75" height="20" x="1167" y="101" style="fill:black;" font-family="Arial" font-size="16px">phone</text>
   <rect width="75" height="20" x="1162" y="107" style="fill:none;stroke:black;"/>
   <text width="75" height="20" x="1167" y="121" style="fill:black;" font-family="Arial" font-size="16px">email</text>
   <rect width="75" height="20" x="1162" y="127" style="fill:none;stroke:black;"/>
   <text width="75" height="20" x="1167" y="141" style="fill:black;" font-family="Arial" font-size="16px">address</text>
   <rect width="75" height="20" x="1162" y="147" style="fill:none;stroke:black;"/>
   <text width="75" height="20" x="1167" y="161" style="fill:black;" font-family="Arial" font-size="16px">city</text>
   <rect width="75" height="20" x="1162" y="167" style="fill:none;stroke:black;"/>
   <text width="75" height="20" x="1167" y="181" style="fill:black;" font-family="Arial" font-size="16px">country</text>
   <rect width="75" height="20" x="1162" y="187" style="fill:none;stroke:black;"/>
   <text width="75" height="20" x="1167" y="201" style="fill:black;" font-family="Arial" font-size="16px">avatar</text>
   <rect width="75" height="20" x="1162" y="207" style="fill:none;stroke:black;"/>
   <text width="75" height="20" x="1167" y="221" style="fill:black;" font-family="Arial" font-size="16px">gender</text>
   <rect width="75" height="20" x="1162" y="227" style="fill:none;stroke:black;"/>
   <text width="75" height="20" x="1167" y="241" style="fill:black;" font-family="Arial" font-size="16px">birthday</text>
   <rect width="75" height="20" x="1162" y="247" style="fill:none;stroke:black;"/>
   <text width="75" height="20" x="1167" y="261" style="fill:black;" font-family="Arial" font-size="16px">active</text>
   <rect width="75" height="20" x="1162" y="267" style="fill:none;stroke:black;"/>
   <text width="75" height="20" x="1167" y="281" style="fill:black;" font-family="Arial" font-size="16px">created</text>
   <rect width="75" height="20" x="1162" y="287" style="fill:none;stroke:black;"/>
   <text width="75" height="20" x="1167" y="301" style="fill:black;" font-family="Arial" font-size="16px">updated</text>
   <rect width="59" height="20" x="1001" y="254" style="fill:#007;stroke:black;"/>
   <text width="59" height="20" x="1006" y="268" style="fill:#fff;" font-family="Arial" font-size="16px"> role</text>
   <rect width="59" height="20" x="1001" y="274" style="fill:#aea;stroke:black;"/>
   <text width="59" height="20" x="1006" y="288" style="fill:black;" font-family="Arial" font-size="16px">id</text>
   <rect width="59" height="20" x="1001" y="294" style="fill:none;stroke:black;"/>
   <text width="59" height="20" x="1006" y="308" style="fill:black;" font-family="Arial" font-size="16px">level</text>
   <rect width="59" height="20" x="1001" y="314" style="fill:none;stroke:black;"/>
   <text width="59" height="20" x="1006" y="328" style="fill:black;" font-family="Arial" font-size="16px">name</text>
   <rect width="59" height="20" x="1001" y="334" style="fill:none;stroke:black;"/>
   <text width="59" height="20" x="1006" y="348" style="fill:black;" font-family="Arial" font-size="16px">update</text>
   <rect width="81" height="20" x="977" y="39" style="fill:#007;stroke:black;"/>
   <text width="81" height="20" x="982" y="53" style="fill:#fff;" font-family="Arial" font-size="16px"> user</text>
   <rect width="81" height="20" x="977" y="59" style="fill:#aea;stroke:black;"/>
   <text width="81" height="20" x="982" y="73" style="fill:black;" font-family="Arial" font-size="16px">id</text>
   <rect width="81" height="20" x="977" y="79" style="fill:none;stroke:black;"/>
   <text width="81" height="20" x="982" y="93" style="fill:black;" font-family="Arial" font-size="16px">username</text>
   <rect width="81" height="20" x="977" y="99" style="fill:none;stroke:black;"/>
   <text width="81" height="20" x="982" y="113" style="fill:black;" font-family="Arial" font-size="16px">password</text>
   <rect width="81" height="20" x="977" y="119" style="fill:none;stroke:black;"/>
   <text width="81" height="20" x="982" y="133" style="fill:black;" font-family="Arial" font-size="16px">token</text>
   <rect width="81" height="20" x="977" y="139" style="fill:none;stroke:black;"/>
   <text width="81" height="20" x="982" y="153" style="fill:black;" font-family="Arial" font-size="16px">active</text>
   <rect width="81" height="20" x="977" y="159" style="fill:none;stroke:black;"/>
   <text width="81" height="20" x="982" y="173" style="fill:black;" font-family="Arial" font-size="16px">id_role</text>
   <rect width="81" height="20" x="977" y="179" style="fill:none;stroke:black;"/>
   <text width="81" height="20" x="982" y="193" style="fill:black;" font-family="Arial" font-size="16px">last_login</text>
   <rect width="81" height="20" x="977" y="199" style="fill:none;stroke:black;"/>
   <text width="81" height="20" x="982" y="213" style="fill:black;" font-family="Arial" font-size="16px">created</text>
   <rect width="81" height="20" x="977" y="219" style="fill:none;stroke:black;"/>
   <text width="81" height="20" x="982" y="233" style="fill:black;" font-family="Arial" font-size="16px">update</text>
   <rect width="108" height="20" x="763" y="261" style="fill:#007;stroke:black;"/>
   <text width="108" height="20" x="768" y="275" style="fill:#fff;" font-family="Arial" font-size="16px"> user_feedback</text>
   <rect width="108" height="20" x="763" y="281" style="fill:#aea;stroke:black;"/>
   <text width="108" height="20" x="768" y="295" style="fill:black;" font-family="Arial" font-size="16px">id</text>
   <rect width="108" height="20" x="763" y="301" style="fill:none;stroke:black;"/>
   <text width="108" height="20" x="768" y="315" style="fill:black;" font-family="Arial" font-size="16px">user_id</text>
   <rect width="108" height="20" x="763" y="321" style="fill:none;stroke:black;"/>
   <text width="108" height="20" x="768" y="335" style="fill:black;" font-family="Arial" font-size="16px">title</text>
   <rect width="108" height="20" x="763" y="341" style="fill:none;stroke:black;"/>
   <text width="108" height="20" x="768" y="355" style="fill:black;" font-family="Arial" font-size="16px">message</text>
   <rect width="108" height="20" x="763" y="361" style="fill:none;stroke:black;"/>
   <text width="108" height="20" x="768" y="375" style="fill:black;" font-family="Arial" font-size="16px">reported_in</text>
   <rect width="108" height="20" x="763" y="381" style="fill:none;stroke:black;"/>
   <text width="108" height="20" x="768" y="395" style="fill:black;" font-family="Arial" font-size="16px">created</text>
   <rect width="108" height="20" x="763" y="401" style="fill:none;stroke:black;"/>
   <text width="108" height="20" x="768" y="415" style="fill:black;" font-family="Arial" font-size="16px">updated</text>
</svg>
