<?xml version="1.0" encoding="UTF-8"?>
<!DOCTYPE svg
PUBLIC "-//W3C//DTD SVG 1.1//EN"
       "http://www.w3.org/Graphics/SVG/1.1/DTD/svg11.dtd">
<svg viewBox="28 -17 1285 899" width="1257px" height="916px" xmlns="http://www.w3.org/2000/svg" version="1.1">
   <line x1="119" y1="438" x2="129" y2="438" style="stroke:#cb0;stroke-width:1;"/>
   <line x1="134" y1="62" x2="124" y2="62" style="stroke:#cb0;stroke-width:1;"/>
   <line x1="129" y1="438" x2="134" y2="62" style="stroke:#cb0;stroke-width:1;"/>
   <line x1="126.5" y1="438" x2="122.96446609407" y2="441.53553390593" style="stroke:#cb0;stroke-width:2;"/>
   <line x1="126.5" y1="438" x2="122.96446609407" y2="434.46446609407" style="stroke:#cb0;stroke-width:2;"/>
   <line x1="129" y1="62" x2="132.53553390593" y2="65.535533905933" style="stroke:#cb0;stroke-width:2;"/>
   <line x1="129" y1="62" x2="132.53553390593" y2="58.464466094067" style="stroke:#cb0;stroke-width:2;"/>
   <line x1="943" y1="342" x2="933" y2="342" style="stroke:#bbb;stroke-width:1;"/>
   <line x1="713" y1="28" x2="703" y2="28" style="stroke:#bbb;stroke-width:1;"/>
   <line x1="933" y1="342" x2="713" y2="28" style="stroke:#bbb;stroke-width:1;"/>
   <line x1="935.5" y1="342" x2="939.03553390593" y2="345.53553390593" style="stroke:#bbb;stroke-width:2;"/>
   <line x1="935.5" y1="342" x2="939.03553390593" y2="338.46446609407" style="stroke:#bbb;stroke-width:2;"/>
   <line x1="708" y1="28" x2="711.53553390593" y2="31.535533905933" style="stroke:#bbb;stroke-width:2;"/>
   <line x1="708" y1="28" x2="711.53553390593" y2="24.464466094067" style="stroke:#bbb;stroke-width:2;"/>
   <line x1="503" y1="74" x2="513" y2="74" style="stroke:#c00;stroke-width:1;"/>
   <line x1="594" y1="28" x2="604" y2="28" style="stroke:#c00;stroke-width:1;"/>
   <line x1="513" y1="74" x2="594" y2="28" style="stroke:#c00;stroke-width:1;"/>
   <line x1="510.5" y1="74" x2="506.96446609407" y2="77.535533905933" style="stroke:#c00;stroke-width:2;"/>
   <line x1="510.5" y1="74" x2="506.96446609407" y2="70.464466094067" style="stroke:#c00;stroke-width:2;"/>
   <line x1="599" y1="28" x2="595.46446609407" y2="31.535533905933" style="stroke:#c00;stroke-width:2;"/>
   <line x1="599" y1="28" x2="595.46446609407" y2="24.464466094067" style="stroke:#c00;stroke-width:2;"/>
   <line x1="503" y1="234" x2="513" y2="234" style="stroke:#333;stroke-width:1;"/>
   <line x1="509" y1="367" x2="499" y2="367" style="stroke:#333;stroke-width:1;"/>
   <line x1="513" y1="234" x2="509" y2="367" style="stroke:#333;stroke-width:1;"/>
   <line x1="510.5" y1="234" x2="506.96446609407" y2="237.53553390593" style="stroke:#333;stroke-width:2;"/>
   <line x1="510.5" y1="234" x2="506.96446609407" y2="230.46446609407" style="stroke:#333;stroke-width:2;"/>
   <line x1="504" y1="367" x2="507.53553390593" y2="370.53553390593" style="stroke:#333;stroke-width:2;"/>
   <line x1="504" y1="367" x2="507.53553390593" y2="363.46446609407" style="stroke:#333;stroke-width:2;"/>
   <line x1="396" y1="54" x2="386" y2="54" style="stroke:#0b0;stroke-width:1;"/>
   <line x1="301" y1="36" x2="291" y2="36" style="stroke:#0b0;stroke-width:1;"/>
   <line x1="386" y1="54" x2="301" y2="36" style="stroke:#0b0;stroke-width:1;"/>
   <line x1="388.5" y1="54" x2="392.03553390593" y2="57.535533905933" style="stroke:#0b0;stroke-width:2;"/>
   <line x1="388.5" y1="54" x2="392.03553390593" y2="50.464466094067" style="stroke:#0b0;stroke-width:2;"/>
   <line x1="296" y1="36" x2="299.53553390593" y2="39.535533905933" style="stroke:#0b0;stroke-width:2;"/>
   <line x1="296" y1="36" x2="299.53553390593" y2="32.464466094067" style="stroke:#0b0;stroke-width:2;"/>
   <line x1="703" y1="48" x2="713" y2="48" style="stroke:#bbb;stroke-width:1;"/>
   <line x1="934" y1="145" x2="944" y2="145" style="stroke:#bbb;stroke-width:1;"/>
   <line x1="713" y1="48" x2="934" y2="145" style="stroke:#bbb;stroke-width:1;"/>
   <line x1="710.5" y1="48" x2="706.96446609407" y2="51.535533905933" style="stroke:#bbb;stroke-width:2;"/>
   <line x1="710.5" y1="48" x2="706.96446609407" y2="44.464466094067" style="stroke:#bbb;stroke-width:2;"/>
   <line x1="939" y1="145" x2="935.46446609407" y2="148.53553390593" style="stroke:#bbb;stroke-width:2;"/>
   <line x1="939" y1="145" x2="935.46446609407" y2="141.46446609407" style="stroke:#bbb;stroke-width:2;"/>
   <line x1="1074" y1="72" x2="1084" y2="72" style="stroke:#333;stroke-width:1;"/>
   <line x1="1151" y1="35" x2="1161" y2="35" style="stroke:#333;stroke-width:1;"/>
   <line x1="1084" y1="72" x2="1151" y2="35" style="stroke:#333;stroke-width:1;"/>
   <line x1="1081.5" y1="72" x2="1077.9644660941" y2="75.535533905933" style="stroke:#333;stroke-width:2;"/>
   <line x1="1081.5" y1="72" x2="1077.9644660941" y2="68.464466094067" style="stroke:#333;stroke-width:2;"/>
   <line x1="1156" y1="35" x2="1152.4644660941" y2="38.535533905933" style="stroke:#333;stroke-width:2;"/>
   <line x1="1156" y1="35" x2="1152.4644660941" y2="31.464466094067" style="stroke:#333;stroke-width:2;"/>
   <line x1="943" y1="52" x2="933" y2="52" style="stroke:#bbb;stroke-width:1;"/>
   <line x1="713" y1="28" x2="703" y2="28" style="stroke:#bbb;stroke-width:1;"/>
   <line x1="933" y1="52" x2="713" y2="28" style="stroke:#bbb;stroke-width:1;"/>
   <line x1="935.5" y1="52" x2="939.03553390593" y2="55.535533905933" style="stroke:#bbb;stroke-width:2;"/>
   <line x1="935.5" y1="52" x2="939.03553390593" y2="48.464466094067" style="stroke:#bbb;stroke-width:2;"/>
   <line x1="708" y1="28" x2="711.53553390593" y2="31.535533905933" style="stroke:#bbb;stroke-width:2;"/>
   <line x1="708" y1="28" x2="711.53553390593" y2="24.464466094067" style="stroke:#bbb;stroke-width:2;"/>
   <line x1="600" y1="354" x2="590" y2="354" style="stroke:#b0b;stroke-width:1;"/>
   <line x1="594" y1="28" x2="604" y2="28" style="stroke:#b0b;stroke-width:1;"/>
   <line x1="590" y1="354" x2="594" y2="28" style="stroke:#b0b;stroke-width:1;"/>
   <line x1="592.5" y1="354" x2="596.03553390593" y2="357.53553390593" style="stroke:#b0b;stroke-width:2;"/>
   <line x1="592.5" y1="354" x2="596.03553390593" y2="350.46446609407" style="stroke:#b0b;stroke-width:2;"/>
   <line x1="599" y1="28" x2="595.46446609407" y2="31.535533905933" style="stroke:#b0b;stroke-width:2;"/>
   <line x1="599" y1="28" x2="595.46446609407" y2="24.464466094067" style="stroke:#b0b;stroke-width:2;"/>
   <line x1="216" y1="56" x2="206" y2="56" style="stroke:#bbb;stroke-width:1;"/>
   <line x1="134" y1="62" x2="124" y2="62" style="stroke:#bbb;stroke-width:1;"/>
   <line x1="206" y1="56" x2="134" y2="62" style="stroke:#bbb;stroke-width:1;"/>
   <line x1="208.5" y1="56" x2="212.03553390593" y2="59.535533905933" style="stroke:#bbb;stroke-width:2;"/>
   <line x1="208.5" y1="56" x2="212.03553390593" y2="52.464466094067" style="stroke:#bbb;stroke-width:2;"/>
   <line x1="129" y1="62" x2="132.53553390593" y2="65.535533905933" style="stroke:#bbb;stroke-width:2;"/>
   <line x1="129" y1="62" x2="132.53553390593" y2="58.464466094067" style="stroke:#bbb;stroke-width:2;"/>
   <line x1="124" y1="162" x2="134" y2="162" style="stroke:#0bf;stroke-width:1;"/>
   <line x1="221" y1="403" x2="231" y2="403" style="stroke:#0bf;stroke-width:1;"/>
   <line x1="134" y1="162" x2="221" y2="403" style="stroke:#0bf;stroke-width:1;"/>
   <line x1="131.5" y1="162" x2="127.96446609407" y2="165.53553390593" style="stroke:#0bf;stroke-width:2;"/>
   <line x1="131.5" y1="162" x2="127.96446609407" y2="158.46446609407" style="stroke:#0bf;stroke-width:2;"/>
   <line x1="226" y1="403" x2="222.46446609407" y2="406.53553390593" style="stroke:#0bf;stroke-width:2;"/>
   <line x1="226" y1="403" x2="222.46446609407" y2="399.46446609407" style="stroke:#0bf;stroke-width:2;"/>
   <line x1="43" y1="576" x2="33" y2="576" style="stroke:#0b0;stroke-width:1;"/>
   <line x1="33" y1="62" x2="43" y2="62" style="stroke:#0b0;stroke-width:1;"/>
   <line x1="33" y1="576" x2="33" y2="62" style="stroke:#0b0;stroke-width:1;"/>
   <line x1="35.5" y1="576" x2="39.035533905933" y2="579.53553390593" style="stroke:#0b0;stroke-width:2;"/>
   <line x1="35.5" y1="576" x2="39.035533905933" y2="572.46446609407" style="stroke:#0b0;stroke-width:2;"/>
   <line x1="38" y1="62" x2="34.464466094067" y2="65.535533905933" style="stroke:#0b0;stroke-width:2;"/>
   <line x1="38" y1="62" x2="34.464466094067" y2="58.464466094067" style="stroke:#0b0;stroke-width:2;"/>
   <rect width="79" height="20" x="1157" y="536" style="fill:#007;stroke:black;"/>
   <text width="79" height="20" x="1162" y="550" style="fill:#fff;" font-family="Arial" font-size="16px"> bill</text>
   <rect width="79" height="20" x="1157" y="556" style="fill:#aea;stroke:black;"/>
   <text width="79" height="20" x="1162" y="570" style="fill:black;" font-family="Arial" font-size="16px">id</text>
   <rect width="79" height="20" x="1157" y="576" style="fill:none;stroke:black;"/>
   <text width="79" height="20" x="1162" y="590" style="fill:black;" font-family="Arial" font-size="16px">profile_id</text>
   <rect width="79" height="20" x="1157" y="596" style="fill:none;stroke:black;"/>
   <text width="79" height="20" x="1162" y="610" style="fill:black;" font-family="Arial" font-size="16px">user_id</text>
   <rect width="79" height="20" x="1157" y="616" style="fill:none;stroke:black;"/>
   <text width="79" height="20" x="1162" y="630" style="fill:black;" font-family="Arial" font-size="16px">order_id</text>
   <rect width="79" height="20" x="1157" y="636" style="fill:none;stroke:black;"/>
   <text width="79" height="20" x="1162" y="650" style="fill:black;" font-family="Arial" font-size="16px">per_cash</text>
   <rect width="79" height="20" x="1157" y="656" style="fill:none;stroke:black;"/>
   <text width="79" height="20" x="1162" y="670" style="fill:black;" font-family="Arial" font-size="16px">total_cash</text>
   <rect width="79" height="20" x="1157" y="676" style="fill:none;stroke:black;"/>
   <text width="79" height="20" x="1162" y="690" style="fill:black;" font-family="Arial" font-size="16px">created</text>
   <rect width="79" height="20" x="1157" y="696" style="fill:none;stroke:black;"/>
   <text width="79" height="20" x="1162" y="710" style="fill:black;" font-family="Arial" font-size="16px">updated</text>
   <rect width="68" height="20" x="51" y="288" style="fill:#007;stroke:black;"/>
   <text width="68" height="20" x="56" y="302" style="fill:#fff;" font-family="Arial" font-size="16px"> blog</text>
   <rect width="68" height="20" x="51" y="308" style="fill:#aea;stroke:black;"/>
   <text width="68" height="20" x="56" y="322" style="fill:black;" font-family="Arial" font-size="16px">id</text>
   <rect width="68" height="20" x="51" y="328" style="fill:none;stroke:black;"/>
   <text width="68" height="20" x="56" y="342" style="fill:black;" font-family="Arial" font-size="16px">title</text>
   <rect width="68" height="20" x="51" y="348" style="fill:none;stroke:black;"/>
   <text width="68" height="20" x="56" y="362" style="fill:black;" font-family="Arial" font-size="16px">body</text>
   <rect width="68" height="20" x="51" y="368" style="fill:none;stroke:black;"/>
   <text width="68" height="20" x="56" y="382" style="fill:black;" font-family="Arial" font-size="16px">tags</text>
   <rect width="68" height="20" x="51" y="388" style="fill:none;stroke:black;"/>
   <text width="68" height="20" x="56" y="402" style="fill:black;" font-family="Arial" font-size="16px">image</text>
   <rect width="68" height="20" x="51" y="408" style="fill:none;stroke:black;"/>
   <text width="68" height="20" x="56" y="422" style="fill:black;" font-family="Arial" font-size="16px">params</text>
   <rect width="68" height="20" x="51" y="428" style="fill:none;stroke:black;"/>
   <text width="68" height="20" x="56" y="442" style="fill:black;" font-family="Arial" font-size="16px">user_id</text>
   <rect width="68" height="20" x="51" y="448" style="fill:none;stroke:black;"/>
   <text width="68" height="20" x="56" y="462" style="fill:black;" font-family="Arial" font-size="16px">created</text>
   <rect width="68" height="20" x="51" y="468" style="fill:none;stroke:black;"/>
   <text width="68" height="20" x="56" y="482" style="fill:black;" font-family="Arial" font-size="16px">updated</text>
   <rect width="96" height="20" x="1161" y="5" style="fill:#007;stroke:black;"/>
   <text width="96" height="20" x="1166" y="19" style="fill:#fff;" font-family="Arial" font-size="16px"> category</text>
   <rect width="96" height="20" x="1161" y="25" style="fill:#aea;stroke:black;"/>
   <text width="96" height="20" x="1166" y="39" style="fill:black;" font-family="Arial" font-size="16px">id</text>
   <rect width="96" height="20" x="1161" y="45" style="fill:none;stroke:black;"/>
   <text width="96" height="20" x="1166" y="59" style="fill:black;" font-family="Arial" font-size="16px">cat_name</text>
   <rect width="96" height="20" x="1161" y="65" style="fill:none;stroke:black;"/>
   <text width="96" height="20" x="1166" y="79" style="fill:black;" font-family="Arial" font-size="16px">params</text>
   <rect width="96" height="20" x="1161" y="85" style="fill:none;stroke:black;"/>
   <text width="96" height="20" x="1166" y="99" style="fill:black;" font-family="Arial" font-size="16px">position</text>
   <rect width="96" height="20" x="1161" y="105" style="fill:none;stroke:black;"/>
   <text width="96" height="20" x="1166" y="119" style="fill:black;" font-family="Arial" font-size="16px">group_name</text>
   <rect width="96" height="20" x="1161" y="125" style="fill:none;stroke:black;"/>
   <text width="96" height="20" x="1166" y="139" style="fill:black;" font-family="Arial" font-size="16px">active</text>
   <rect width="96" height="20" x="1161" y="145" style="fill:none;stroke:black;"/>
   <text width="96" height="20" x="1166" y="159" style="fill:black;" font-family="Arial" font-size="16px">created</text>
   <rect width="96" height="20" x="1161" y="165" style="fill:none;stroke:black;"/>
   <text width="96" height="20" x="1166" y="179" style="fill:black;" font-family="Arial" font-size="16px">updated</text>
   <rect width="85" height="20" x="944" y="115" style="fill:#007;stroke:black;"/>
   <text width="85" height="20" x="949" y="129" style="fill:#fff;" font-family="Arial" font-size="16px"> company</text>
   <rect width="85" height="20" x="944" y="135" style="fill:#aea;stroke:black;"/>
   <text width="85" height="20" x="949" y="149" style="fill:black;" font-family="Arial" font-size="16px">id</text>
   <rect width="85" height="20" x="944" y="155" style="fill:none;stroke:black;"/>
   <text width="85" height="20" x="949" y="169" style="fill:black;" font-family="Arial" font-size="16px">com_name</text>
   <rect width="85" height="20" x="944" y="175" style="fill:none;stroke:black;"/>
   <text width="85" height="20" x="949" y="189" style="fill:black;" font-family="Arial" font-size="16px">params</text>
   <rect width="85" height="20" x="944" y="195" style="fill:none;stroke:black;"/>
   <text width="85" height="20" x="949" y="209" style="fill:black;" font-family="Arial" font-size="16px">position</text>
   <rect width="85" height="20" x="944" y="215" style="fill:none;stroke:black;"/>
   <text width="85" height="20" x="949" y="229" style="fill:black;" font-family="Arial" font-size="16px">active</text>
   <rect width="85" height="20" x="944" y="235" style="fill:none;stroke:black;"/>
   <text width="85" height="20" x="949" y="249" style="fill:black;" font-family="Arial" font-size="16px">created</text>
   <rect width="85" height="20" x="944" y="255" style="fill:none;stroke:black;"/>
   <text width="85" height="20" x="949" y="269" style="fill:black;" font-family="Arial" font-size="16px">updated</text>
   <rect width="88" height="20" x="1182" y="215" style="fill:#007;stroke:black;"/>
   <text width="88" height="20" x="1187" y="229" style="fill:#fff;" font-family="Arial" font-size="16px"> event</text>
   <rect width="88" height="20" x="1182" y="235" style="fill:#aea;stroke:black;"/>
   <text width="88" height="20" x="1187" y="249" style="fill:black;" font-family="Arial" font-size="16px">id</text>
   <rect width="88" height="20" x="1182" y="255" style="fill:none;stroke:black;"/>
   <text width="88" height="20" x="1187" y="269" style="fill:black;" font-family="Arial" font-size="16px">title</text>
   <rect width="88" height="20" x="1182" y="275" style="fill:none;stroke:black;"/>
   <text width="88" height="20" x="1187" y="289" style="fill:black;" font-family="Arial" font-size="16px">params</text>
   <rect width="88" height="20" x="1182" y="295" style="fill:none;stroke:black;"/>
   <text width="88" height="20" x="1187" y="309" style="fill:black;" font-family="Arial" font-size="16px">description</text>
   <rect width="88" height="20" x="1182" y="315" style="fill:none;stroke:black;"/>
   <text width="88" height="20" x="1187" y="329" style="fill:black;" font-family="Arial" font-size="16px">image</text>
   <rect width="88" height="20" x="1182" y="335" style="fill:none;stroke:black;"/>
   <text width="88" height="20" x="1187" y="349" style="fill:black;" font-family="Arial" font-size="16px">address</text>
   <rect width="88" height="20" x="1182" y="355" style="fill:none;stroke:black;"/>
   <text width="88" height="20" x="1187" y="369" style="fill:black;" font-family="Arial" font-size="16px">zipcode</text>
   <rect width="88" height="20" x="1182" y="375" style="fill:none;stroke:black;"/>
   <text width="88" height="20" x="1187" y="389" style="fill:black;" font-family="Arial" font-size="16px">city</text>
   <rect width="88" height="20" x="1182" y="395" style="fill:none;stroke:black;"/>
   <text width="88" height="20" x="1187" y="409" style="fill:black;" font-family="Arial" font-size="16px">schedule</text>
   <rect width="88" height="20" x="1182" y="415" style="fill:none;stroke:black;"/>
   <text width="88" height="20" x="1187" y="429" style="fill:black;" font-family="Arial" font-size="16px">date_start</text>
   <rect width="88" height="20" x="1182" y="435" style="fill:none;stroke:black;"/>
   <text width="88" height="20" x="1187" y="449" style="fill:black;" font-family="Arial" font-size="16px">date_end</text>
   <rect width="88" height="20" x="1182" y="455" style="fill:none;stroke:black;"/>
   <text width="88" height="20" x="1187" y="469" style="fill:black;" font-family="Arial" font-size="16px">ticket</text>
   <rect width="88" height="20" x="1182" y="475" style="fill:none;stroke:black;"/>
   <text width="88" height="20" x="1187" y="489" style="fill:black;" font-family="Arial" font-size="16px">price</text>
   <rect width="88" height="20" x="1182" y="495" style="fill:none;stroke:black;"/>
   <text width="88" height="20" x="1187" y="509" style="fill:black;" font-family="Arial" font-size="16px">updated</text>
   <rect width="93" height="20" x="943" y="292" style="fill:#007;stroke:black;"/>
   <text width="93" height="20" x="948" y="306" style="fill:#fff;" font-family="Arial" font-size="16px"> image</text>
   <rect width="93" height="20" x="943" y="312" style="fill:#aea;stroke:black;"/>
   <text width="93" height="20" x="948" y="326" style="fill:black;" font-family="Arial" font-size="16px">id</text>
   <rect width="93" height="20" x="943" y="332" style="fill:none;stroke:black;"/>
   <text width="93" height="20" x="948" y="346" style="fill:black;" font-family="Arial" font-size="16px">product_id</text>
   <rect width="93" height="20" x="943" y="352" style="fill:none;stroke:black;"/>
   <text width="93" height="20" x="948" y="366" style="fill:black;" font-family="Arial" font-size="16px">label</text>
   <rect width="93" height="20" x="943" y="372" style="fill:none;stroke:black;"/>
   <text width="93" height="20" x="948" y="386" style="fill:black;" font-family="Arial" font-size="16px">position</text>
   <rect width="93" height="20" x="943" y="392" style="fill:none;stroke:black;"/>
   <text width="93" height="20" x="948" y="406" style="fill:black;" font-family="Arial" font-size="16px">base_image</text>
   <rect width="93" height="20" x="943" y="412" style="fill:none;stroke:black;"/>
   <text width="93" height="20" x="948" y="426" style="fill:black;" font-family="Arial" font-size="16px">url</text>
   <rect width="93" height="20" x="943" y="432" style="fill:none;stroke:black;"/>
   <text width="93" height="20" x="948" y="446" style="fill:black;" font-family="Arial" font-size="16px">active</text>
   <rect width="93" height="20" x="943" y="452" style="fill:none;stroke:black;"/>
   <text width="93" height="20" x="948" y="466" style="fill:black;" font-family="Arial" font-size="16px">created</text>
   <rect width="93" height="20" x="943" y="472" style="fill:none;stroke:black;"/>
   <text width="93" height="20" x="948" y="486" style="fill:black;" font-family="Arial" font-size="16px">updated</text>
   <rect width="107" height="20" x="396" y="4" style="fill:#007;stroke:black;"/>
   <text width="107" height="20" x="401" y="18" style="fill:#fff;" font-family="Arial" font-size="16px"> order_product</text>
   <rect width="107" height="20" x="396" y="24" style="fill:#aea;stroke:black;"/>
   <text width="107" height="20" x="401" y="38" style="fill:black;" font-family="Arial" font-size="16px">id</text>
   <rect width="107" height="20" x="396" y="44" style="fill:none;stroke:black;"/>
   <text width="107" height="20" x="401" y="58" style="fill:black;" font-family="Arial" font-size="16px">profile_id</text>
   <rect width="107" height="20" x="396" y="64" style="fill:none;stroke:black;"/>
   <text width="107" height="20" x="401" y="78" style="fill:black;" font-family="Arial" font-size="16px">product_id</text>
   <rect width="107" height="20" x="396" y="84" style="fill:none;stroke:black;"/>
   <text width="107" height="20" x="401" y="98" style="fill:black;" font-family="Arial" font-size="16px">product_detail</text>
   <rect width="107" height="20" x="396" y="104" style="fill:none;stroke:black;"/>
   <text width="107" height="20" x="401" y="118" style="fill:black;" font-family="Arial" font-size="16px">item_count</text>
   <rect width="107" height="20" x="396" y="124" style="fill:none;stroke:black;"/>
   <text width="107" height="20" x="401" y="138" style="fill:black;" font-family="Arial" font-size="16px">to_price</text>
   <rect width="107" height="20" x="396" y="144" style="fill:none;stroke:black;"/>
   <text width="107" height="20" x="401" y="158" style="fill:black;" font-family="Arial" font-size="16px">ship_price</text>
   <rect width="107" height="20" x="396" y="164" style="fill:none;stroke:black;"/>
   <text width="107" height="20" x="401" y="178" style="fill:black;" font-family="Arial" font-size="16px">total_price</text>
   <rect width="107" height="20" x="396" y="184" style="fill:none;stroke:black;"/>
   <text width="107" height="20" x="401" y="198" style="fill:black;" font-family="Arial" font-size="16px">order_type</text>
   <rect width="107" height="20" x="396" y="204" style="fill:none;stroke:black;"/>
   <text width="107" height="20" x="401" y="218" style="fill:black;" font-family="Arial" font-size="16px">description</text>
   <rect width="107" height="20" x="396" y="224" style="fill:none;stroke:black;"/>
   <text width="107" height="20" x="401" y="238" style="fill:black;" font-family="Arial" font-size="16px">status</text>
   <rect width="107" height="20" x="396" y="244" style="fill:none;stroke:black;"/>
   <text width="107" height="20" x="401" y="258" style="fill:black;" font-family="Arial" font-size="16px">ip_address</text>
   <rect width="107" height="20" x="396" y="264" style="fill:none;stroke:black;"/>
   <text width="107" height="20" x="401" y="278" style="fill:black;" font-family="Arial" font-size="16px">created</text>
   <rect width="107" height="20" x="396" y="284" style="fill:none;stroke:black;"/>
   <text width="107" height="20" x="401" y="298" style="fill:black;" font-family="Arial" font-size="16px">updated</text>
   <rect width="96" height="20" x="403" y="337" style="fill:#007;stroke:black;"/>
   <text width="96" height="20" x="408" y="351" style="fill:#fff;" font-family="Arial" font-size="16px"> order_status</text>
   <rect width="96" height="20" x="403" y="357" style="fill:#aea;stroke:black;"/>
   <text width="96" height="20" x="408" y="371" style="fill:black;" font-family="Arial" font-size="16px">id</text>
   <rect width="96" height="20" x="403" y="377" style="fill:none;stroke:black;"/>
   <text width="96" height="20" x="408" y="391" style="fill:black;" font-family="Arial" font-size="16px">name</text>
   <rect width="96" height="20" x="403" y="397" style="fill:none;stroke:black;"/>
   <text width="96" height="20" x="408" y="411" style="fill:black;" font-family="Arial" font-size="16px">note</text>
   <rect width="96" height="20" x="403" y="417" style="fill:none;stroke:black;"/>
   <text width="96" height="20" x="408" y="431" style="fill:black;" font-family="Arial" font-size="16px">updated</text>
   <rect width="99" height="20" x="604" y="-2" style="fill:#007;stroke:black;"/>
   <text width="99" height="20" x="609" y="12" style="fill:#fff;" font-family="Arial" font-size="16px"> product</text>
   <rect width="99" height="20" x="604" y="18" style="fill:#aea;stroke:black;"/>
   <text width="99" height="20" x="609" y="32" style="fill:black;" font-family="Arial" font-size="16px">id</text>
   <rect width="99" height="20" x="604" y="38" style="fill:none;stroke:black;"/>
   <text width="99" height="20" x="609" y="52" style="fill:black;" font-family="Arial" font-size="16px">company_id</text>
   <rect width="99" height="20" x="604" y="58" style="fill:none;stroke:black;"/>
   <text width="99" height="20" x="609" y="72" style="fill:black;" font-family="Arial" font-size="16px">title</text>
   <rect width="99" height="20" x="604" y="78" style="fill:none;stroke:black;"/>
   <text width="99" height="20" x="609" y="92" style="fill:black;" font-family="Arial" font-size="16px">params</text>
   <rect width="99" height="20" x="604" y="98" style="fill:none;stroke:black;"/>
   <text width="99" height="20" x="609" y="112" style="fill:black;" font-family="Arial" font-size="16px">price</text>
   <rect width="99" height="20" x="604" y="118" style="fill:none;stroke:black;"/>
   <text width="99" height="20" x="609" y="132" style="fill:black;" font-family="Arial" font-size="16px">count</text>
   <rect width="99" height="20" x="604" y="138" style="fill:none;stroke:black;"/>
   <text width="99" height="20" x="609" y="152" style="fill:black;" font-family="Arial" font-size="16px">active</text>
   <rect width="99" height="20" x="604" y="158" style="fill:none;stroke:black;"/>
   <text width="99" height="20" x="609" y="172" style="fill:black;" font-family="Arial" font-size="16px">detail</text>
   <rect width="99" height="20" x="604" y="178" style="fill:none;stroke:black;"/>
   <text width="99" height="20" x="609" y="192" style="fill:black;" font-family="Arial" font-size="16px">sale</text>
   <rect width="99" height="20" x="604" y="198" style="fill:none;stroke:black;"/>
   <text width="99" height="20" x="609" y="212" style="fill:black;" font-family="Arial" font-size="16px">product_year</text>
   <rect width="99" height="20" x="604" y="218" style="fill:none;stroke:black;"/>
   <text width="99" height="20" x="609" y="232" style="fill:black;" font-family="Arial" font-size="16px">tags</text>
   <rect width="99" height="20" x="604" y="238" style="fill:none;stroke:black;"/>
   <text width="99" height="20" x="609" y="252" style="fill:black;" font-family="Arial" font-size="16px">created</text>
   <rect width="99" height="20" x="604" y="258" style="fill:none;stroke:black;"/>
   <text width="99" height="20" x="609" y="272" style="fill:black;" font-family="Arial" font-size="16px">updated</text>
   <rect width="131" height="20" x="943" y="2" style="fill:#007;stroke:black;"/>
   <text width="131" height="20" x="948" y="16" style="fill:#fff;" font-family="Arial" font-size="16px"> product_collection</text>
   <rect width="131" height="20" x="943" y="22" style="fill:#aea;stroke:black;"/>
   <text width="131" height="20" x="948" y="36" style="fill:black;" font-family="Arial" font-size="16px">id</text>
   <rect width="131" height="20" x="943" y="42" style="fill:none;stroke:black;"/>
   <text width="131" height="20" x="948" y="56" style="fill:black;" font-family="Arial" font-size="16px">product_id</text>
   <rect width="131" height="20" x="943" y="62" style="fill:none;stroke:black;"/>
   <text width="131" height="20" x="948" y="76" style="fill:black;" font-family="Arial" font-size="16px">category_id</text>
   <rect width="131" height="20" x="943" y="82" style="fill:none;stroke:black;"/>
   <text width="131" height="20" x="948" y="96" style="fill:black;" font-family="Arial" font-size="16px">updated</text>
   <rect width="133" height="20" x="600" y="304" style="fill:#007;stroke:black;"/>
   <text width="133" height="20" x="605" y="318" style="fill:#fff;" font-family="Arial" font-size="16px"> product_detail</text>
   <rect width="133" height="20" x="600" y="324" style="fill:#aea;stroke:black;"/>
   <text width="133" height="20" x="605" y="338" style="fill:black;" font-family="Arial" font-size="16px">id</text>
   <rect width="133" height="20" x="600" y="344" style="fill:none;stroke:black;"/>
   <text width="133" height="20" x="605" y="358" style="fill:black;" font-family="Arial" font-size="16px">product_id</text>
   <rect width="133" height="20" x="600" y="364" style="fill:none;stroke:black;"/>
   <text width="133" height="20" x="605" y="378" style="fill:black;" font-family="Arial" font-size="16px">length</text>
   <rect width="133" height="20" x="600" y="384" style="fill:none;stroke:black;"/>
   <text width="133" height="20" x="605" y="398" style="fill:black;" font-family="Arial" font-size="16px">width</text>
   <rect width="133" height="20" x="600" y="404" style="fill:none;stroke:black;"/>
   <text width="133" height="20" x="605" y="418" style="fill:black;" font-family="Arial" font-size="16px">height</text>
   <rect width="133" height="20" x="600" y="424" style="fill:none;stroke:black;"/>
   <text width="133" height="20" x="605" y="438" style="fill:black;" font-family="Arial" font-size="16px">weight</text>
   <rect width="133" height="20" x="600" y="444" style="fill:none;stroke:black;"/>
   <text width="133" height="20" x="605" y="458" style="fill:black;" font-family="Arial" font-size="16px">screen_type</text>
   <rect width="133" height="20" x="600" y="464" style="fill:none;stroke:black;"/>
   <text width="133" height="20" x="605" y="478" style="fill:black;" font-family="Arial" font-size="16px">screen_size</text>
   <rect width="133" height="20" x="600" y="484" style="fill:none;stroke:black;"/>
   <text width="133" height="20" x="605" y="498" style="fill:black;" font-family="Arial" font-size="16px">screen_resolution</text>
   <rect width="133" height="20" x="600" y="504" style="fill:none;stroke:black;"/>
   <text width="133" height="20" x="605" y="518" style="fill:black;" font-family="Arial" font-size="16px">screen_des</text>
   <rect width="133" height="20" x="600" y="524" style="fill:none;stroke:black;"/>
   <text width="133" height="20" x="605" y="538" style="fill:black;" font-family="Arial" font-size="16px">memory_int</text>
   <rect width="133" height="20" x="600" y="544" style="fill:none;stroke:black;"/>
   <text width="133" height="20" x="605" y="558" style="fill:black;" font-family="Arial" font-size="16px">memory_ext</text>
   <rect width="133" height="20" x="600" y="564" style="fill:none;stroke:black;"/>
   <text width="133" height="20" x="605" y="578" style="fill:black;" font-family="Arial" font-size="16px">memory_sup</text>
   <rect width="133" height="20" x="600" y="584" style="fill:none;stroke:black;"/>
   <text width="133" height="20" x="605" y="598" style="fill:black;" font-family="Arial" font-size="16px">bandwidth</text>
   <rect width="133" height="20" x="600" y="604" style="fill:none;stroke:black;"/>
   <text width="133" height="20" x="605" y="618" style="fill:black;" font-family="Arial" font-size="16px">gps_type</text>
   <rect width="133" height="20" x="600" y="624" style="fill:none;stroke:black;"/>
   <text width="133" height="20" x="605" y="638" style="fill:black;" font-family="Arial" font-size="16px">bluetooth</text>
   <rect width="133" height="20" x="600" y="644" style="fill:none;stroke:black;"/>
   <text width="133" height="20" x="605" y="658" style="fill:black;" font-family="Arial" font-size="16px">wifi</text>
   <rect width="133" height="20" x="600" y="664" style="fill:none;stroke:black;"/>
   <text width="133" height="20" x="605" y="678" style="fill:black;" font-family="Arial" font-size="16px">infrared</text>
   <rect width="133" height="20" x="600" y="684" style="fill:none;stroke:black;"/>
   <text width="133" height="20" x="605" y="698" style="fill:black;" font-family="Arial" font-size="16px">usb</text>
   <rect width="133" height="20" x="600" y="704" style="fill:none;stroke:black;"/>
   <text width="133" height="20" x="605" y="718" style="fill:black;" font-family="Arial" font-size="16px">main_camera</text>
   <rect width="133" height="20" x="600" y="724" style="fill:none;stroke:black;"/>
   <text width="133" height="20" x="605" y="738" style="fill:black;" font-family="Arial" font-size="16px">front_camera</text>
   <rect width="133" height="20" x="600" y="744" style="fill:none;stroke:black;"/>
   <text width="133" height="20" x="605" y="758" style="fill:black;" font-family="Arial" font-size="16px">sim_support</text>
   <rect width="133" height="20" x="600" y="764" style="fill:none;stroke:black;"/>
   <text width="133" height="20" x="605" y="778" style="fill:black;" font-family="Arial" font-size="16px">os</text>
   <rect width="133" height="20" x="600" y="784" style="fill:none;stroke:black;"/>
   <text width="133" height="20" x="605" y="798" style="fill:black;" font-family="Arial" font-size="16px">cpu</text>
   <rect width="133" height="20" x="600" y="804" style="fill:none;stroke:black;"/>
   <text width="133" height="20" x="605" y="818" style="fill:black;" font-family="Arial" font-size="16px">ram</text>
   <rect width="133" height="20" x="600" y="824" style="fill:none;stroke:black;"/>
   <text width="133" height="20" x="605" y="838" style="fill:black;" font-family="Arial" font-size="16px">battery</text>
   <rect width="133" height="20" x="600" y="844" style="fill:none;stroke:black;"/>
   <text width="133" height="20" x="605" y="858" style="fill:black;" font-family="Arial" font-size="16px">accessory</text>
   <rect width="133" height="20" x="600" y="864" style="fill:none;stroke:black;"/>
   <text width="133" height="20" x="605" y="878" style="fill:black;" font-family="Arial" font-size="16px">updated</text>
   <rect width="75" height="20" x="216" y="6" style="fill:#007;stroke:black;"/>
   <text width="75" height="20" x="221" y="20" style="fill:#fff;" font-family="Arial" font-size="16px"> profile</text>
   <rect width="75" height="20" x="216" y="26" style="fill:#aea;stroke:black;"/>
   <text width="75" height="20" x="221" y="40" style="fill:black;" font-family="Arial" font-size="16px">id</text>
   <rect width="75" height="20" x="216" y="46" style="fill:none;stroke:black;"/>
   <text width="75" height="20" x="221" y="60" style="fill:black;" font-family="Arial" font-size="16px">user_id</text>
   <rect width="75" height="20" x="216" y="66" style="fill:none;stroke:black;"/>
   <text width="75" height="20" x="221" y="80" style="fill:black;" font-family="Arial" font-size="16px">full_name</text>
   <rect width="75" height="20" x="216" y="86" style="fill:none;stroke:black;"/>
   <text width="75" height="20" x="221" y="100" style="fill:black;" font-family="Arial" font-size="16px">phone</text>
   <rect width="75" height="20" x="216" y="106" style="fill:none;stroke:black;"/>
   <text width="75" height="20" x="221" y="120" style="fill:black;" font-family="Arial" font-size="16px">email</text>
   <rect width="75" height="20" x="216" y="126" style="fill:none;stroke:black;"/>
   <text width="75" height="20" x="221" y="140" style="fill:black;" font-family="Arial" font-size="16px">address</text>
   <rect width="75" height="20" x="216" y="146" style="fill:none;stroke:black;"/>
   <text width="75" height="20" x="221" y="160" style="fill:black;" font-family="Arial" font-size="16px">city</text>
   <rect width="75" height="20" x="216" y="166" style="fill:none;stroke:black;"/>
   <text width="75" height="20" x="221" y="180" style="fill:black;" font-family="Arial" font-size="16px">country</text>
   <rect width="75" height="20" x="216" y="186" style="fill:none;stroke:black;"/>
   <text width="75" height="20" x="221" y="200" style="fill:black;" font-family="Arial" font-size="16px">avatar</text>
   <rect width="75" height="20" x="216" y="206" style="fill:none;stroke:black;"/>
   <text width="75" height="20" x="221" y="220" style="fill:black;" font-family="Arial" font-size="16px">gender</text>
   <rect width="75" height="20" x="216" y="226" style="fill:none;stroke:black;"/>
   <text width="75" height="20" x="221" y="240" style="fill:black;" font-family="Arial" font-size="16px">birthday</text>
   <rect width="75" height="20" x="216" y="246" style="fill:none;stroke:black;"/>
   <text width="75" height="20" x="221" y="260" style="fill:black;" font-family="Arial" font-size="16px">active</text>
   <rect width="75" height="20" x="216" y="266" style="fill:none;stroke:black;"/>
   <text width="75" height="20" x="221" y="280" style="fill:black;" font-family="Arial" font-size="16px">created</text>
   <rect width="75" height="20" x="216" y="286" style="fill:none;stroke:black;"/>
   <text width="75" height="20" x="221" y="300" style="fill:black;" font-family="Arial" font-size="16px">updated</text>
   <rect width="59" height="20" x="231" y="373" style="fill:#007;stroke:black;"/>
   <text width="59" height="20" x="236" y="387" style="fill:#fff;" font-family="Arial" font-size="16px"> role</text>
   <rect width="59" height="20" x="231" y="393" style="fill:#aea;stroke:black;"/>
   <text width="59" height="20" x="236" y="407" style="fill:black;" font-family="Arial" font-size="16px">id</text>
   <rect width="59" height="20" x="231" y="413" style="fill:none;stroke:black;"/>
   <text width="59" height="20" x="236" y="427" style="fill:black;" font-family="Arial" font-size="16px">level</text>
   <rect width="59" height="20" x="231" y="433" style="fill:none;stroke:black;"/>
   <text width="59" height="20" x="236" y="447" style="fill:black;" font-family="Arial" font-size="16px">name</text>
   <rect width="59" height="20" x="231" y="453" style="fill:none;stroke:black;"/>
   <text width="59" height="20" x="236" y="467" style="fill:black;" font-family="Arial" font-size="16px">update</text>
   <rect width="68" height="20" x="815" y="531" style="fill:#007;stroke:black;"/>
   <text width="68" height="20" x="820" y="545" style="fill:#fff;" font-family="Arial" font-size="16px"> subcribe</text>
   <rect width="68" height="20" x="815" y="551" style="fill:#aea;stroke:black;"/>
   <text width="68" height="20" x="820" y="565" style="fill:black;" font-family="Arial" font-size="16px">id</text>
   <rect width="68" height="20" x="815" y="571" style="fill:none;stroke:black;"/>
   <text width="68" height="20" x="820" y="585" style="fill:black;" font-family="Arial" font-size="16px">email</text>
   <rect width="68" height="20" x="815" y="591" style="fill:none;stroke:black;"/>
   <text width="68" height="20" x="820" y="605" style="fill:black;" font-family="Arial" font-size="16px">updated</text>
   <rect width="81" height="20" x="43" y="32" style="fill:#007;stroke:black;"/>
   <text width="81" height="20" x="48" y="46" style="fill:#fff;" font-family="Arial" font-size="16px"> user</text>
   <rect width="81" height="20" x="43" y="52" style="fill:#aea;stroke:black;"/>
   <text width="81" height="20" x="48" y="66" style="fill:black;" font-family="Arial" font-size="16px">id</text>
   <rect width="81" height="20" x="43" y="72" style="fill:none;stroke:black;"/>
   <text width="81" height="20" x="48" y="86" style="fill:black;" font-family="Arial" font-size="16px">username</text>
   <rect width="81" height="20" x="43" y="92" style="fill:none;stroke:black;"/>
   <text width="81" height="20" x="48" y="106" style="fill:black;" font-family="Arial" font-size="16px">password</text>
   <rect width="81" height="20" x="43" y="112" style="fill:none;stroke:black;"/>
   <text width="81" height="20" x="48" y="126" style="fill:black;" font-family="Arial" font-size="16px">token</text>
   <rect width="81" height="20" x="43" y="132" style="fill:none;stroke:black;"/>
   <text width="81" height="20" x="48" y="146" style="fill:black;" font-family="Arial" font-size="16px">active</text>
   <rect width="81" height="20" x="43" y="152" style="fill:none;stroke:black;"/>
   <text width="81" height="20" x="48" y="166" style="fill:black;" font-family="Arial" font-size="16px">id_role</text>
   <rect width="81" height="20" x="43" y="172" style="fill:none;stroke:black;"/>
   <text width="81" height="20" x="48" y="186" style="fill:black;" font-family="Arial" font-size="16px">last_login</text>
   <rect width="81" height="20" x="43" y="192" style="fill:none;stroke:black;"/>
   <text width="81" height="20" x="48" y="206" style="fill:black;" font-family="Arial" font-size="16px">created</text>
   <rect width="81" height="20" x="43" y="212" style="fill:none;stroke:black;"/>
   <text width="81" height="20" x="48" y="226" style="fill:black;" font-family="Arial" font-size="16px">update</text>
   <rect width="108" height="20" x="43" y="526" style="fill:#007;stroke:black;"/>
   <text width="108" height="20" x="48" y="540" style="fill:#fff;" font-family="Arial" font-size="16px"> user_feedback</text>
   <rect width="108" height="20" x="43" y="546" style="fill:#aea;stroke:black;"/>
   <text width="108" height="20" x="48" y="560" style="fill:black;" font-family="Arial" font-size="16px">id</text>
   <rect width="108" height="20" x="43" y="566" style="fill:none;stroke:black;"/>
   <text width="108" height="20" x="48" y="580" style="fill:black;" font-family="Arial" font-size="16px">user_id</text>
   <rect width="108" height="20" x="43" y="586" style="fill:none;stroke:black;"/>
   <text width="108" height="20" x="48" y="600" style="fill:black;" font-family="Arial" font-size="16px">title</text>
   <rect width="108" height="20" x="43" y="606" style="fill:none;stroke:black;"/>
   <text width="108" height="20" x="48" y="620" style="fill:black;" font-family="Arial" font-size="16px">message</text>
   <rect width="108" height="20" x="43" y="626" style="fill:none;stroke:black;"/>
   <text width="108" height="20" x="48" y="640" style="fill:black;" font-family="Arial" font-size="16px">reported_in</text>
   <rect width="108" height="20" x="43" y="646" style="fill:none;stroke:black;"/>
   <text width="108" height="20" x="48" y="660" style="fill:black;" font-family="Arial" font-size="16px">created</text>
   <rect width="108" height="20" x="43" y="666" style="fill:none;stroke:black;"/>
   <text width="108" height="20" x="48" y="680" style="fill:black;" font-family="Arial" font-size="16px">updated</text>
</svg>
